<svg xmlns="http://www.w3.org/2000/svg" viewBox="0 0 48 48">
  <rect width="48" height="48" rx="4" fill="#F7DF1E"/>
  <path d="M12 36l3-2c.5 1 1 1.5 2.5 1.5 1.3 0 2-.5 2-1.5v-8h3.5v8c0 3-2 4.5-5 4.5-2.5 0-4.5-1.5-6-2.5z" fill="#323330"/>
  <path d="M27 35.5l3-1.5c.7 1 1.5 2 3.5 2 1.5 0 2.5-.5 2.5-1.5 0-1-.5-1.5-3-2.5l-1-.5c-3-1-5-2.5-5-5.5 0-2.5 2-4.5 5.5-4.5 2.5 0 4 .5 5.5 2.5l-3 2c-.5-1-1.5-1.5-2.5-1.5s-1.5.5-1.5 1c0 1 .5 1 2.5 2l1 .5c3.5 1.5 5.5 3 5.5 6 0 3.5-2.5 5-6 5-3.5 0-5.5-1.5-6.5-3.5z" fill="#323330"/>
</svg>
